<svg width="1011" height="290" viewBox="0 0 1011 290" fill="none" xmlns="http://www.w3.org/2000/svg">
<path d="M113.599 237.454C122.709 236.598 127.122 234.17 127.122 230.458C127.122 226.888 126.411 223.176 124.987 219.321C123.563 215.465 122.709 211.753 122.14 207.326C121.855 199.759 121.57 192.048 121.57 184.766C121.57 133.648 130.254 83.9586 147.764 35.6967C149.187 32.127 149.757 28.7001 149.757 25.1305C149.472 20.1329 144.205 17.5628 133.528 17.5628C127.692 17.5628 123.279 19.8474 120.289 24.8449C63.49 135.647 33.4532 191.192 30.3214 191.477C28.4708 191.477 27.6167 188.621 27.6167 182.482C27.332 176.627 27.332 173.343 27.332 172.486C27.332 161.064 30.0367 140.359 34.8768 110.231C40.4286 74.8203 44.2722 54.6873 45.6957 49.4042C47.1192 44.1211 47.6887 39.6947 47.6887 36.2678C47.6887 31.2703 45.6957 28.7001 41.2827 27.7006C37.0121 27.1295 34.0227 26.8439 32.8838 26.8439C27.9014 26.8439 24.7696 28.9857 23.6308 33.2693C20.3567 43.8355 16.5131 60.5416 11.673 83.6731C6.69065 106.662 3.70121 125.367 2.27767 139.788C0.854125 154.067 0 165.204 0 172.486C0 183.909 1.42354 192.762 4.55533 198.474C10.6766 207.041 18.9331 211.182 29.0403 211.182C40.4286 211.182 48.6851 207.326 53.8099 200.044C57.9382 194.761 61.497 188.621 64.6288 181.625C67.6182 174.914 76.8713 153.21 92.3879 116.657C95.8044 108.804 98.5091 104.948 99.9327 104.663C100.787 104.663 101.641 106.947 101.926 111.659C101.926 118.656 101.071 131.507 99.0785 150.64C97.655 162.634 96.8009 175.199 96.8009 188.621C96.8009 194.761 97.3703 206.47 98.2244 223.747C99.0785 232.742 103.492 237.454 111.321 237.454H113.599Z" fill="#0166FF"/>
<path d="M264.067 248.592C270.188 248.306 275.171 246.736 279.014 243.594C282.715 240.596 284.566 238.311 284.566 236.312C284.566 233.599 282.431 230.743 278.445 228.031C263.213 217.893 249.832 193.619 237.874 155.495C235.311 147.642 232.322 139.788 229.475 131.935C228.621 128.936 227.909 125.795 227.909 122.226C227.909 118.941 230.329 115.229 234.742 110.803C237.304 106.947 246.984 96.2383 263.498 78.39C289.264 51.1177 310.474 37.1246 327.699 36.2678C330.262 35.9823 333.251 35.4111 336.098 33.8405C343.643 30.128 347.487 26.5583 347.487 22.8459C347.202 19.2762 345.209 15.7065 340.796 11.9941C336.383 8.13885 332.397 6.42541 328.553 6.42541C312.183 6.99655 286.844 24.2738 252.109 58.1142C235.027 75.1059 223.923 83.6731 219.225 83.6731C216.948 83.6731 215.097 80.9601 214.243 75.9626C213.104 71.1078 208.122 49.4042 199.438 11.1374C197.303 3.85524 192.748 0 184.776 0C180.22 0.285574 175.523 1.71344 170.825 4.99754C167.266 7.28213 165.558 10.2806 165.558 13.9931C173.387 44.9778 180.505 68.966 186.342 85.9577C191.751 103.235 194.741 112.802 194.741 115.229C194.741 117.514 192.748 121.94 188.619 128.651C178.37 145.928 169.686 161.635 161.857 176.627C153.885 191.477 149.614 203.186 148.333 211.182C146.909 219.321 146.34 225.175 146.34 228.316C146.34 237.169 149.614 241.595 156.305 241.595C160.291 241.595 163.565 237.169 165.843 228.602C168.832 217.322 174.099 202.614 181.644 185.337C188.904 168.06 197.018 155.495 205.559 147.927C206.698 149.641 212.819 166.061 223.638 197.046C226.77 206.755 232.891 217.893 242.002 230.172C250.686 242.452 257.946 248.592 264.067 248.592Z" fill="#0166FF"/>
<path d="M469.627 274.008C475.463 273.722 478.453 271.295 478.453 266.44V264.584C476.033 250.305 474.894 238.882 474.894 231.029C474.894 200.33 481.869 154.353 496.247 92.9542C505.215 50.8321 509.913 25.7016 509.913 17.5628C509.913 8.99557 506.639 4.99754 499.948 4.99754C492.688 5.28311 486.851 14.8498 481.869 33.8405C476.887 53.2595 470.765 76.9621 463.79 104.948C462.367 111.374 456.815 115.515 446.85 117.514C429.483 120.798 417.24 122.226 409.838 122.226C401.439 122.226 397.026 117.799 397.026 108.804C397.026 102.378 401.724 84.2442 411.404 54.6873C411.973 52.6883 412.258 50.261 412.258 47.4052C412.258 42.4077 409.838 39.4092 404.855 38.5524C400.015 37.9813 397.026 37.6957 395.602 37.6957C390.335 37.6957 387.204 39.6947 386.207 43.55L382.791 55.5441C377.808 71.9645 373.68 88.5278 369.979 105.234C367.843 113.801 365.281 119.655 362.007 123.368C358.875 127.223 353.039 129.508 344.924 130.364C336.668 131.221 331.685 132.221 329.977 133.077C327.984 134.22 327.13 136.79 327.13 140.645C327.13 147.356 328.554 152.068 331.685 154.924C334.105 157.065 339.373 157.922 347.487 157.922C353.608 157.922 356.597 160.492 356.597 166.061C356.597 171.059 355.316 177.77 353.323 185.623C351.33 193.619 350.049 202.043 350.049 210.468L350.476 217.607C351.33 226.032 357.736 230.458 369.694 230.458C376.669 230.458 380.086 228.031 380.086 223.747C378.093 214.037 377.239 206.184 377.239 200.044C377.239 191.763 378.093 183.053 380.086 173.343C381.936 164.633 384.214 158.208 387.204 153.781C388.627 152.354 393.04 150.355 400.3 148.213C414.536 143.786 427.632 141.787 439.59 141.787C448.131 141.787 452.117 146.785 452.117 156.494C452.117 158.779 451.832 161.349 451.263 164.348C448.701 179.197 447.562 199.473 447.562 224.889C447.846 238.026 448.131 245.308 448.416 247.307C449.27 254.732 451.263 261.157 454.537 266.155C457.669 271.295 462.367 274.008 468.203 274.008H469.627Z" fill="#0166FF"/>
<path d="M538.384 100.522C541.943 100.522 544.505 98.5229 546.356 94.6677C556.178 70.1083 561.16 55.8296 561.16 51.4032C560.876 47.4052 557.744 43.8355 550.911 40.9798C548.918 39.9803 547.21 39.6947 545.217 39.6947C540.804 39.9803 537.814 41.8365 536.391 45.549L534.967 49.6898C528.846 65.2536 525.572 76.5337 525.572 83.6731V89.5273C525.857 95.6672 528.846 99.094 534.398 100.236L538.384 100.522ZM529.131 218.464C534.113 218.178 536.675 216.893 536.96 215.465C537.245 214.037 537.245 212.324 537.245 210.753C537.245 208.754 536.96 207.041 536.675 205.327C536.106 203.471 535.821 201.472 535.821 199.473C536.96 173.914 539.95 148.784 544.79 123.939C545.217 121.94 545.501 119.941 545.501 117.514C545.501 109.089 540.234 104.948 529.7 104.948C523.579 104.948 520.02 107.947 518.596 113.516C513.899 133.648 511.621 155.209 511.621 178.912C511.621 185.052 511.906 191.477 512.191 198.188C513.045 211.753 518.312 218.464 528.277 218.464H529.131Z" fill="#0166FF"/>
<path d="M579.097 209.897C588.777 208.469 599.027 202.329 609.703 191.477C619.099 181.91 623.796 174.628 623.796 169.631V161.349C623.512 152.354 614.116 146.785 595.753 144.786C586.072 143.501 581.232 139.788 580.948 133.077C580.948 114.087 588.208 95.6672 602.728 77.5332C605.717 73.678 607.141 70.3939 607.141 67.5382C607.141 64.2541 603.013 61.3983 595.183 58.8282C593.475 58.1142 591.624 57.8287 589.916 57.8287C577.958 57.8287 567.993 70.6795 560.164 96.8095C555.466 111.659 553.189 122.797 553.189 130.079C553.189 145.357 561.018 154.067 576.535 156.494C585.788 157.922 591.055 159.921 591.909 161.92C592.905 164.062 593.475 165.775 593.475 166.632C593.475 171.63 588.492 178.912 578.812 188.336C571.552 195.332 567.993 200.044 567.993 202.614C567.993 207.612 571.837 209.897 579.097 209.897Z" fill="#0166FF"/>
<path d="M671.628 177.77C668.353 177.484 666.93 176.913 666.93 176.056C666.645 175.199 666.645 174.2 666.645 173.629C666.645 171.915 670.204 164.348 677.179 151.211C689.422 128.08 698.105 116.371 703.088 116.371C705.081 116.371 706.077 118.085 706.077 121.369C706.077 126.366 703.373 133.934 697.821 144.215C687.286 163.776 679.172 174.914 673.051 176.913C672.482 177.198 671.912 177.484 671.628 177.77ZM632.48 290C638.032 290 641.306 288.858 641.876 286.288C642.445 283.575 642.73 281.29 642.73 278.72L642.445 268.439C642.445 258.73 644.153 246.736 647.427 233.028C654.687 204.042 659.1 189.193 661.093 188.907L664.083 188.621C665.506 188.621 666.93 188.907 668.638 189.764C672.482 191.192 676.041 191.763 679.742 191.763C687.714 191.763 694.689 188.621 700.81 182.196C716.184 166.061 725.58 146.785 728.996 124.225C729.566 121.083 729.85 117.799 729.85 114.943C729.566 106.947 726.149 101.093 719.174 97.6662C714.476 95.3816 710.063 94.0965 705.65 94.0965C697.251 94.3821 689.707 99.6652 682.446 110.231C672.766 123.653 666.93 130.364 664.937 130.364C664.083 130.364 663.798 129.508 663.798 128.08C663.798 121.94 664.937 115.8 666.93 109.66C668.923 103.52 669.919 99.094 669.919 96.2383C669.919 90.6696 666.645 86.8144 660.524 85.1009C658.816 84.5298 657.392 84.2442 655.826 84.2442C650.559 84.2442 647.143 87.3855 645.434 94.0965C630.487 152.068 620.522 210.753 615.398 270.438L615.113 273.437C615.398 284.574 621.234 290 632.48 290Z" fill="#0166FF"/>
<path d="M824.516 203.186C829.498 203.186 831.776 201.758 831.776 199.188C831.776 198.188 831.491 196.76 830.637 195.332C827.505 188.05 825.655 180.054 825.655 172.201C825.655 161.349 827.505 149.069 830.922 134.791C831.776 130.935 832.345 127.509 832.345 123.939C832.345 115.8 829.783 110.231 824.231 107.233C823.377 106.947 821.954 106.662 820.388 106.662C818.964 106.662 816.971 106.947 814.978 107.661C811.135 108.804 800.316 120.512 782.806 142.358C769.14 159.636 760.741 168.488 757.752 168.488C757.182 168.488 756.898 167.774 756.898 166.918C756.898 165.775 757.467 163.776 758.606 160.778C767.147 138.36 775.261 121.369 783.66 109.946C785.796 107.233 787.219 105.805 788.358 105.805C789.497 106.091 791.063 106.662 792.486 107.661C793.91 108.518 796.187 109.089 798.892 109.089C801.455 109.089 803.875 106.947 805.868 102.949C806.722 101.521 807.006 99.6652 807.006 97.3806C807.006 94.9532 805.013 92.0975 800.885 88.8134C796.899 85.6721 792.202 84.2442 787.219 84.2442C779.105 84.2442 771.133 89.2418 763.588 99.094C745.225 123.368 733.552 147.927 728.569 172.201C728 174.914 727.715 177.198 727.715 179.483C727.715 188.621 731.843 195.618 739.673 200.044C743.516 202.043 747.218 203.186 751.061 203.186C756.044 203.186 761.026 200.33 765.866 194.761C770.848 189.193 775.831 183.053 781.098 176.342C790.351 164.348 795.049 158.493 795.333 158.493C796.899 158.493 797.469 161.635 797.469 168.06C797.469 186.194 805.013 197.617 820.388 202.614C821.669 202.9 823.092 203.186 824.516 203.186Z" fill="#0166FF"/>
<path d="M862.952 225.175C873.913 224.318 884.732 211.753 894.981 187.193C899.964 174.914 905.516 165.775 911.352 159.921C908.647 174.628 907.508 186.908 907.508 196.76C908.363 203.757 913.06 208.754 921.744 211.467C923.879 212.038 925.872 212.324 927.865 212.324C938.115 212.324 947.225 202.329 954.77 182.482C957.332 175.199 960.607 168.774 964.023 163.205C966.728 159.35 968.436 157.351 969.575 157.351C970.714 157.351 971.426 160.207 971.426 166.061C971.426 167.489 971.426 169.06 970.998 171.059C970.714 173.058 970.714 175.771 970.714 178.341C970.714 186.622 971.995 192.762 973.988 197.046C978.686 206.755 985.376 211.467 994.345 211.467C996.48 211.467 998.188 210.753 999.612 209.611C1001.6 207.898 1002.89 206.184 1002.89 204.613C1002.89 203.186 1002.32 201.758 1001.04 199.759C998.758 195.332 997.619 188.05 997.619 177.77C997.619 162.92 1000.75 144.5 1007.44 121.94C1009.86 113.516 1011 106.091 1011 99.9508C1011 93.5254 1007.44 88.8134 1000.47 86.2432C999.327 85.9577 998.188 85.6721 996.765 85.6721C988.793 85.6721 980.394 93.2398 970.998 108.232C966.728 115.515 962.6 122.226 959.468 128.365C954.77 137.361 951.781 141.787 950.642 142.073C950.357 142.073 950.072 140.931 950.072 138.932C950.072 134.22 951.496 123.939 954.485 108.518C954.77 106.947 954.77 104.948 954.77 102.378C954.485 98.5229 953.347 95.3816 950.927 92.9542C948.079 90.0985 943.951 88.5278 938.969 88.5278C933.417 88.8134 928.435 91.8119 924.733 97.6662C918.327 107.947 912.206 117.799 906.37 128.08C891.422 154.353 882.454 167.489 879.18 167.774C878.041 167.774 877.472 165.775 877.472 161.92C877.472 153.781 880.461 138.075 885.871 114.372C886.582 112.23 886.867 110.231 886.867 108.518C886.582 104.948 885.301 101.807 883.024 99.094C880.461 96.5239 877.187 95.3816 873.343 95.3816C863.236 95.3816 852.417 130.079 840.744 200.044V207.612C841.029 215.465 845.157 220.748 853.556 223.747C856.261 224.604 858.823 225.175 861.386 225.175H862.952Z" fill="#0166FF"/>
</svg>
